<?xml version="1.0" standalone="no"?>
<!DOCTYPE svg PUBLIC "-//W3C//DTD SVG 20010904//EN"
 "http://www.w3.org/TR/2001/REC-SVG-20010904/DTD/svg10.dtd">
<svg version="1.0" xmlns="http://www.w3.org/2000/svg"
 width="512.000000pt" height="512.000000pt" viewBox="0 0 512.000000 512.000000"
 preserveAspectRatio="xMidYMid meet">

<g transform="translate(0.000000,512.000000) scale(0.100000,-0.100000)"
fill="#000000" stroke="none">
<path d="M2765 4625 c-291 -29 -547 -59 -568 -66 -77 -25 -109 -67 -212 -269
l-96 -189 -45 -7 c-39 -6 -47 -3 -68 19 -41 44 -85 60 -176 65 -143 7 -263
-36 -315 -113 -11 -17 -44 -42 -75 -57 -53 -26 -160 -111 -160 -127 0 -4 21
-4 47 0 27 4 108 8 181 8 156 1 287 -22 422 -73 l86 -32 1325 78 c728 43 1342
75 1364 72 127 -19 222 -114 245 -246 5 -29 14 -631 21 -1338 l12 -1285 -23
-59 c-26 -68 -92 -140 -155 -171 -25 -12 -68 -21 -115 -23 -62 -3 -775 54
-2479 198 l-234 20 -86 -35 c-169 -67 -242 -80 -466 -79 -168 0 -212 4 -278
21 -42 11 -77 17 -77 14 0 -12 95 -99 136 -124 22 -14 62 -32 89 -41 57 -20
3280 -346 3415 -346 160 0 304 57 420 167 110 103 175 220 205 369 15 76 15
171 -5 1425 -11 739 -25 1364 -30 1389 -53 266 -265 462 -535 495 -27 3 -200
-6 -384 -20 -184 -14 -341 -25 -350 -25 -11 0 -49 63 -115 191 -125 240 -129
243 -285 246 -68 1 -294 -17 -636 -52z"/>
<path d="M1085 3754 c-451 -76 -846 -434 -1005 -913 -46 -137 -69 -268 -76
-426 -11 -251 36 -476 146 -700 164 -332 438 -562 778 -652 84 -22 119 -26
257 -27 188 -1 278 14 429 75 169 67 304 158 439 296 251 255 399 604 414 978
34 840 -629 1497 -1382 1369z m364 -510 c139 -46 287 -160 374 -286 120 -174
177 -423 148 -642 -83 -617 -677 -969 -1152 -680 -261 158 -416 499 -379 832
44 405 299 716 655 798 96 22 252 12 354 -22z"/>
<path d="M2042 3679 l-53 -11 28 -21 c77 -59 169 -147 224 -215 59 -74 64 -77
133 -97 137 -40 249 -109 352 -217 444 -465 304 -1291 -267 -1578 -41 -21
-102 -45 -134 -54 -45 -11 -65 -23 -84 -48 -48 -64 -187 -200 -248 -246 -35
-25 -63 -49 -63 -53 0 -13 131 -22 259 -16 153 6 258 34 408 107 467 229 760
778 712 1333 -47 542 -385 973 -862 1098 -95 25 -317 35 -405 18z"/>
<path d="M2706 3683 l-48 -4 75 -43 c123 -70 197 -128 295 -230 51 -53 92
-101 92 -105 0 -5 38 -34 84 -65 472 -314 547 -1025 157 -1482 -40 -46 -101
-102 -146 -134 -43 -30 -106 -84 -139 -120 -159 -170 -273 -263 -411 -333
l-80 -41 80 -10 c55 -6 113 -5 185 2 265 30 489 140 690 342 194 195 318 434
376 725 27 134 25 406 -4 537 -109 495 -438 849 -877 944 -73 16 -245 25 -329
17z"/>
</g>
</svg>
